<svg xmlns="http://www.w3.org/2000/svg" width="933.333" height="933.333" version="1.0" viewBox="0 0 700 700"><path d="M22 147c-.4.3 4.8 8.8 11.7 19 6.9 10.2 18.5 27.5 25.9 38.5 7.4 11 21.7 32.1 31.8 47 10 14.8 25.8 38.2 35.1 52 9.2 13.7 20.9 31.1 26 38.5l9.1 13.5-.1 94.7V545l4.2.1h33.6l16.4-.1V355.3l16.8-24.9c26.7-39.5 38.1-56.3 55-81.4 8.7-12.9 19.5-28.9 24-35.5 24.1-35.5 43.6-64.5 44-65.7.4-1.1-4.7-1.3-27.7-1.2-15.6.1-28.5.2-28.8.3-.3 0-25.1 36.8-55 81.6-30 44.8-54.7 81.4-55 81.4-.5 0-4.9-6.5-38.9-57.3-7.4-11.1-13.8-20.3-14.1-20.6-.4-.3-.9-1-1.1-1.5-.4-1-11.4-17.6-16.7-25-1.5-2.2-3.1-4.7-3.6-5.5-.4-.8-8.7-13.2-18.4-27.5l-17.7-26H50.7c-15.3 0-28.2.2-28.7.5zM409.9 147c-.1.3-.2 89.9-.3 199.3l-.1 198.7h4.5c5.5.1 236.3.1 240.6 0h3v-22.5c0-19.8-.1-22.5-1.5-22.6-.9 0-44.6-.1-97.1-.1h-95.5V323.4c0-97-.2-176.5-.5-176.5-1.7-.4-53-.3-53.1.1z"/></svg>
