<?xml version="1.0" standalone="no"?>
<!DOCTYPE svg PUBLIC "-//W3C//DTD SVG 20010904//EN"
 "http://www.w3.org/TR/2001/REC-SVG-20010904/DTD/svg10.dtd">
<svg version="1.0" xmlns="http://www.w3.org/2000/svg"
 width="700.000000pt" height="700.000000pt" viewBox="0 0 700.000000 700.000000"
 preserveAspectRatio="xMidYMid meet">
<metadata>
Created by potrace 1.11, written by Peter Selinger 2001-2013
</metadata>
<g transform="translate(0.000000,700.000000) scale(0.100000,-0.100000)"
fill="#000000" stroke="none">
<path d="M220 5530 c-4 -3 48 -88 117 -190 69 -102 185 -275 259 -385 74 -110
217 -321 318 -470 100 -148 258 -382 351 -520 92 -137 209 -311 260 -385 l91
-135 -1 -947 0 -948 42 -1 c54 0 130 0 336 0 l164 1 0 948 0 949 168 249 c267
395 381 563 550 814 87 129 195 289 240 355 241 355 436 645 440 657 4 11 -47
13 -277 12 -156 -1 -285 -2 -288 -3 -3 0 -251 -368 -550 -816 -300 -448 -547
-814 -550 -814 -5 0 -49 65 -389 573 -74 111 -138 203 -141 206 -4 3 -9 10
-11 15 -4 10 -114 176 -167 250 -15 22 -31 47 -36 55 -4 8 -87 132 -184 275
l-177 260 -278 0 c-153 0 -282 -2 -287 -5z"/>
<path d="M4099 5530 c-1 -3 -2 -899 -3 -1993 l-1 -1987 45 0 c55 -1 2363 -1
2406 0 l30 0 0 225 c0 198 -1 225 -15 226 -9 0 -446 1 -971 1 l-955 0 0 1764
c0 970 -2 1765 -5 1765 -17 4 -530 3 -531 -1z"/>
</g>
</svg>
